<mxfile host="65bd71144e">
    <diagram id="bVoswQC8T6PlKmy4Bn8u" name="Page-1">
        <mxGraphModel dx="690" dy="526" grid="1" gridSize="10" guides="1" tooltips="1" connect="1" arrows="1" fold="1" page="1" pageScale="1" pageWidth="827" pageHeight="1169" math="0" shadow="0">
            <root>
                <mxCell id="0"/>
                <mxCell id="1" parent="0"/>
                <mxCell id="286" value="" style="edgeStyle=none;html=1;" parent="1" source="287" target="291" edge="1">
                    <mxGeometry relative="1" as="geometry"/>
                </mxCell>
                <mxCell id="287" value="Start" style="ellipse;whiteSpace=wrap;html=1;" parent="1" vertex="1">
                    <mxGeometry x="205" y="100" width="120" height="60" as="geometry"/>
                </mxCell>
                <mxCell id="290" style="edgeStyle=none;html=1;entryX=0.566;entryY=0.015;entryDx=0;entryDy=0;entryPerimeter=0;" parent="1" source="291" target="293" edge="1">
                    <mxGeometry relative="1" as="geometry"/>
                </mxCell>
                <mxCell id="291" value="get studentsNames" style="shape=parallelogram;perimeter=parallelogramPerimeter;whiteSpace=wrap;html=1;fixedSize=1;" parent="1" vertex="1">
                    <mxGeometry x="195" y="180" width="140" height="60" as="geometry"/>
                </mxCell>
                <mxCell id="292" style="edgeStyle=none;html=1;entryX=0.5;entryY=0;entryDx=0;entryDy=0;" parent="1" source="293" target="298" edge="1">
                    <mxGeometry relative="1" as="geometry"/>
                </mxCell>
                <mxCell id="293" value="Get assignmentsDone" style="shape=parallelogram;perimeter=parallelogramPerimeter;whiteSpace=wrap;html=1;fixedSize=1;" parent="1" vertex="1">
                    <mxGeometry x="185" y="260" width="140" height="60" as="geometry"/>
                </mxCell>
                <mxCell id="296" value="Stop" style="ellipse;whiteSpace=wrap;html=1;" parent="1" vertex="1">
                    <mxGeometry x="420" y="810" width="120" height="60" as="geometry"/>
                </mxCell>
                <mxCell id="333" value="" style="edgeStyle=none;html=1;" parent="1" source="298" target="332" edge="1">
                    <mxGeometry relative="1" as="geometry"/>
                </mxCell>
                <mxCell id="298" value="table = [ ]" style="rounded=1;whiteSpace=wrap;html=1;" parent="1" vertex="1">
                    <mxGeometry x="197.5" y="340" width="115" height="60" as="geometry"/>
                </mxCell>
                <mxCell id="299" value="yes" style="edgeStyle=none;html=1;entryX=0.5;entryY=0;entryDx=0;entryDy=0;" parent="1" source="301" target="304" edge="1">
                    <mxGeometry relative="1" as="geometry"/>
                </mxCell>
                <mxCell id="352" value="no" style="edgeStyle=none;rounded=0;html=1;" parent="1" source="301" target="351" edge="1">
                    <mxGeometry relative="1" as="geometry"/>
                </mxCell>
                <mxCell id="301" value="for (let total = 0; total &amp;lt; studentsNames.length; total++)" style="rhombus;whiteSpace=wrap;html=1;" parent="1" vertex="1">
                    <mxGeometry x="178.75" y="520" width="152.5" height="140" as="geometry"/>
                </mxCell>
                <mxCell id="335" value="" style="edgeStyle=none;html=1;" parent="1" source="304" target="334" edge="1">
                    <mxGeometry relative="1" as="geometry"/>
                </mxCell>
                <mxCell id="304" value="const arrayStud = [ ]" style="rounded=1;whiteSpace=wrap;html=1;" parent="1" vertex="1">
                    <mxGeometry x="163.75" y="727.5" width="182.5" height="65" as="geometry"/>
                </mxCell>
                <mxCell id="325" value="" style="edgeStyle=none;html=1;" parent="1" source="312" target="324" edge="1">
                    <mxGeometry relative="1" as="geometry"/>
                </mxCell>
                <mxCell id="312" value="Start" style="ellipse;whiteSpace=wrap;html=1;" parent="1" vertex="1">
                    <mxGeometry x="625" y="130" width="120" height="60" as="geometry"/>
                </mxCell>
                <mxCell id="313" value="Stop" style="ellipse;whiteSpace=wrap;html=1;" parent="1" vertex="1">
                    <mxGeometry x="625" y="740" width="120" height="60" as="geometry"/>
                </mxCell>
                <mxCell id="318" value="" style="edgeStyle=none;html=1;" parent="1" source="315" target="316" edge="1">
                    <mxGeometry relative="1" as="geometry"/>
                </mxCell>
                <mxCell id="315" value="temp1 = 1 - Math.random()" style="rounded=1;whiteSpace=wrap;html=1;" parent="1" vertex="1">
                    <mxGeometry x="625" y="385" width="120" height="60" as="geometry"/>
                </mxCell>
                <mxCell id="320" value="" style="edgeStyle=none;html=1;" parent="1" source="316" target="319" edge="1">
                    <mxGeometry relative="1" as="geometry"/>
                </mxCell>
                <mxCell id="316" value="temp2 =&amp;nbsp; Math.random()" style="rounded=1;whiteSpace=wrap;html=1;" parent="1" vertex="1">
                    <mxGeometry x="625" y="465" width="120" height="60" as="geometry"/>
                </mxCell>
                <mxCell id="322" value="" style="edgeStyle=none;html=1;" parent="1" source="319" target="321" edge="1">
                    <mxGeometry relative="1" as="geometry"/>
                </mxCell>
                <mxCell id="319" value="calc = Math.sqrt(-2.0 * Math.log(temp1)) * Math.cos(2.0 * Math.PI * temp2)" style="rounded=1;whiteSpace=wrap;html=1;" parent="1" vertex="1">
                    <mxGeometry x="560" y="555" width="250" height="60" as="geometry"/>
                </mxCell>
                <mxCell id="323" value="" style="edgeStyle=none;html=1;" parent="1" source="321" target="313" edge="1">
                    <mxGeometry relative="1" as="geometry"/>
                </mxCell>
                <mxCell id="321" value="return calc * dev * gaussian" style="shape=parallelogram;perimeter=parallelogramPerimeter;whiteSpace=wrap;html=1;fixedSize=1;" parent="1" vertex="1">
                    <mxGeometry x="625" y="635" width="120" height="60" as="geometry"/>
                </mxCell>
                <mxCell id="327" value="" style="edgeStyle=none;html=1;" parent="1" source="324" target="326" edge="1">
                    <mxGeometry relative="1" as="geometry"/>
                </mxCell>
                <mxCell id="324" value="get gaussian" style="shape=parallelogram;perimeter=parallelogramPerimeter;whiteSpace=wrap;html=1;fixedSize=1;" parent="1" vertex="1">
                    <mxGeometry x="625" y="210" width="120" height="60" as="geometry"/>
                </mxCell>
                <mxCell id="329" style="edgeStyle=none;html=1;entryX=0.5;entryY=0;entryDx=0;entryDy=0;" parent="1" source="326" target="315" edge="1">
                    <mxGeometry relative="1" as="geometry"/>
                </mxCell>
                <mxCell id="326" value="get dev" style="shape=parallelogram;perimeter=parallelogramPerimeter;whiteSpace=wrap;html=1;fixedSize=1;" parent="1" vertex="1">
                    <mxGeometry x="625" y="290" width="120" height="60" as="geometry"/>
                </mxCell>
                <mxCell id="336" value="" style="edgeStyle=none;html=1;" parent="1" source="332" target="301" edge="1">
                    <mxGeometry relative="1" as="geometry"/>
                </mxCell>
                <mxCell id="332" value="table.push(assignmentsDone)" style="rounded=1;whiteSpace=wrap;html=1;" parent="1" vertex="1">
                    <mxGeometry x="178.75" y="420" width="152.5" height="70" as="geometry"/>
                </mxCell>
                <mxCell id="339" value="" style="edgeStyle=none;html=1;" parent="1" source="334" target="338" edge="1">
                    <mxGeometry relative="1" as="geometry"/>
                </mxCell>
                <mxCell id="334" value="arrayStud.push(studentsNames[total])" style="rounded=1;whiteSpace=wrap;html=1;" parent="1" vertex="1">
                    <mxGeometry x="146.88" y="820" width="216.25" height="65" as="geometry"/>
                </mxCell>
                <mxCell id="345" value="no" style="edgeStyle=none;html=1;entryX=0.5;entryY=0;entryDx=0;entryDy=0;rounded=0;" parent="1" source="338" target="344" edge="1">
                    <mxGeometry relative="1" as="geometry">
                        <Array as="points">
                            <mxPoint x="464" y="1000"/>
                        </Array>
                    </mxGeometry>
                </mxCell>
                <mxCell id="363" value="no" style="edgeStyle=none;rounded=0;html=1;entryX=1;entryY=0.5;entryDx=0;entryDy=0;" parent="1" source="338" edge="1">
                    <mxGeometry relative="1" as="geometry">
                        <mxPoint x="140" y="1000" as="targetPoint"/>
                    </mxGeometry>
                </mxCell>
                <mxCell id="338" value="for (let unit = 0; unit &amp;lt; worklength; unit++)" style="rhombus;whiteSpace=wrap;html=1;" parent="1" vertex="1">
                    <mxGeometry x="178.75" y="925" width="152.5" height="140" as="geometry"/>
                </mxCell>
                <mxCell id="347" style="edgeStyle=none;html=1;entryX=0.5;entryY=1;entryDx=0;entryDy=0;" parent="1" source="340" target="338" edge="1">
                    <mxGeometry relative="1" as="geometry"/>
                </mxCell>
                <mxCell id="340" value="arrayStud.push(Math.round9gaussianEquation(75, 10)))" style="rounded=1;whiteSpace=wrap;html=1;" parent="1" vertex="1">
                    <mxGeometry x="103.44" y="1100" width="303.12" height="60" as="geometry"/>
                </mxCell>
                <mxCell id="346" style="edgeStyle=none;html=1;entryX=1;entryY=0.5;entryDx=0;entryDy=0;rounded=0;" parent="1" source="344" target="340" edge="1">
                    <mxGeometry relative="1" as="geometry">
                        <Array as="points">
                            <mxPoint x="464" y="1130"/>
                        </Array>
                    </mxGeometry>
                </mxCell>
                <mxCell id="344" value="generate gaussian numbers" style="rounded=1;whiteSpace=wrap;html=1;" parent="1" vertex="1">
                    <mxGeometry x="393.5" y="1020" width="140" height="50" as="geometry"/>
                </mxCell>
                <mxCell id="354" value="" style="edgeStyle=none;rounded=0;html=1;" parent="1" source="351" target="353" edge="1">
                    <mxGeometry relative="1" as="geometry"/>
                </mxCell>
                <mxCell id="351" value="add elements to the table" style="rounded=1;whiteSpace=wrap;html=1;" parent="1" vertex="1">
                    <mxGeometry x="426" y="560" width="120" height="60" as="geometry"/>
                </mxCell>
                <mxCell id="357" value="" style="edgeStyle=none;rounded=0;html=1;" parent="1" source="353" target="355" edge="1">
                    <mxGeometry relative="1" as="geometry"/>
                </mxCell>
                <mxCell id="353" value="console.log(&quot;string table&quot;" style="shape=parallelogram;perimeter=parallelogramPerimeter;whiteSpace=wrap;html=1;fixedSize=1;" parent="1" vertex="1">
                    <mxGeometry x="426" y="650" width="120" height="60" as="geometry"/>
                </mxCell>
                <mxCell id="358" value="" style="edgeStyle=none;rounded=0;html=1;" parent="1" source="355" target="296" edge="1">
                    <mxGeometry relative="1" as="geometry"/>
                </mxCell>
                <mxCell id="355" value="create table.csv" style="shape=parallelogram;perimeter=parallelogramPerimeter;whiteSpace=wrap;html=1;fixedSize=1;" parent="1" vertex="1">
                    <mxGeometry x="420" y="722.5" width="120" height="60" as="geometry"/>
                </mxCell>
                <mxCell id="364" style="edgeStyle=none;rounded=0;html=1;endArrow=none;endFill=0;" parent="1" edge="1">
                    <mxGeometry relative="1" as="geometry">
                        <mxPoint x="256" y="500" as="targetPoint"/>
                        <Array as="points">
                            <mxPoint x="70" y="500"/>
                        </Array>
                        <mxPoint x="70" y="975" as="sourcePoint"/>
                    </mxGeometry>
                </mxCell>
                <mxCell id="362" value="generate gaussian numbers" style="rounded=1;whiteSpace=wrap;html=1;" parent="1" vertex="1">
                    <mxGeometry y="975" width="140" height="50" as="geometry"/>
                </mxCell>
            </root>
        </mxGraphModel>
    </diagram>
</mxfile>